<?xml version="1.0" standalone="no"?>
<!DOCTYPE svg PUBLIC "-//W3C//DTD SVG 20010904//EN" "http://www.w3.org/TR/2001/REC-SVG-20010904/DTD/svg10.dtd">
<svg version="1.0" xmlns="http://www.w3.org/2000/svg"
    width="512.000000pt" height="512.000000pt" viewBox="0 0 512.000000 512.000000"
    preserveAspectRatio="xMidYMid meet">

    <g transform="translate(0.000000,512.000000) scale(0.100000,-0.100000)"
        fill="#7e22ce" stroke="none">
        <path
            d="M2779 3999 c-236 -56 -403 -246 -434 -496 -9 -67 7 -114 51 -153 86
-75 224 -9 224 108 0 98 77 211 171 252 42 18 66 21 123 18 82 -4 133 -26 184
-76 135 -136 99 -359 -73 -447 l-59 -30 -1126 -5 c-1054 -5 -1128 -6 -1153
-23 -41 -26 -59 -61 -59 -113 0 -51 18 -83 66 -118 27 -21 32 -21 1159 -21
1070 0 1135 1 1191 18 242 75 397 266 413 507 11 165 -46 311 -168 432 -74 73
-173 128 -267 147 -61 13 -190 13 -243 0z" />
        <path
            d="M4300 3894 c-121 -21 -154 -30 -217 -55 -258 -108 -437 -356 -459
-639 -4 -61 -2 -82 13 -110 38 -73 124 -100 190 -60 47 28 64 61 74 140 17
140 53 221 133 304 93 95 195 138 331 139 143 1 241 -39 339 -138 244 -244
144 -654 -189 -775 -34 -13 -348 -16 -2232 -20 l-2192 -5 -28 -21 c-34 -25
-63 -79 -63 -119 0 -40 32 -90 72 -115 33 -20 55 -20 2201 -20 2380 0 2238 -4
2388 59 289 121 475 419 456 731 -12 191 -83 346 -222 486 -76 76 -105 97
-185 137 -52 25 -124 53 -160 61 -70 16 -209 27 -250 20z" />
        <path
            d="M284 3160 c-27 -11 -72 -65 -80 -96 -14 -56 18 -124 70 -151 42 -22
141 -22 183 0 91 48 95 183 8 237 -34 21 -139 27 -181 10z" />
        <path
            d="M1330 2223 c-91 -19 -139 -130 -90 -210 35 -59 60 -65 262 -61 l180
3 33 37 c45 49 53 95 26 150 -35 73 -62 82 -236 84 -82 1 -161 0 -175 -3z" />
        <path
            d="M2012 2220 c-120 -29 -144 -192 -37 -253 15 -9 319 -13 1145 -17
1040 -5 1128 -6 1163 -22 69 -31 115 -76 148 -144 29 -58 31 -71 27 -131 -8
-112 -63 -193 -163 -239 -65 -31 -161 -32 -225 -3 -95 42 -170 151 -170 245 0
82 -59 144 -137 144 -55 0 -83 -14 -112 -55 -31 -46 -36 -100 -17 -187 33
-147 107 -262 222 -344 93 -66 177 -95 294 -101 170 -9 305 42 425 162 142
142 195 335 145 529 -48 187 -187 333 -380 399 l-65 22 -1115 2 c-613 1 -1130
-2 -1148 -7z" />
    </g>
</svg>